<svg width="83" height="64" viewBox="0 0 83 64" fill="none" xmlns="http://www.w3.org/2000/svg">
<g filter="url(#filter0_d_216_4517)">
<path d="M46.3696 14.1486C57.7097 14.1486 64.1411 21.4663 65.075 30.2996H65.3602C72.6566 30.2996 78.5727 36.0505 78.5727 43.1451C78.5727 50.2396 72.6566 55.9906 65.3602 55.9906H27.3789C20.0826 55.9906 14.1664 50.2396 14.1664 43.1451C14.1664 36.0505 20.0826 30.2996 27.3789 30.2996H27.6641C28.6072 21.4059 35.0295 14.1486 46.3696 14.1486ZM34.3716 0.201294C41.0699 0.201294 46.9124 4.05075 49.7969 9.70872C48.6598 9.56782 47.5152 9.49795 46.3696 9.49951C35.3745 9.49951 27.3605 15.5759 24.499 24.7765L24.2138 25.7714L24.0022 26.6408L23.2431 26.7802C20.4649 27.3521 17.87 28.61 15.6898 30.4417C13.5096 32.2734 11.812 34.622 10.7483 37.2779C8.55666 35.9285 6.84803 33.9079 5.87075 31.5099C4.89348 29.1118 4.69851 26.4612 5.31417 23.9435C5.92984 21.4258 7.32405 19.1721 9.29414 17.51C11.2642 15.848 13.7075 14.8643 16.2688 14.7019L17.2901 14.6786C17.9995 10.6215 20.1005 6.94655 23.2242 4.29905C26.3479 1.65156 30.2947 0.200734 34.3716 0.201294Z" fill="#CAD7DF"/>
</g>
<defs>
<filter id="filter0_d_216_4517" x="0.961914" y="0.201294" width="81.6104" height="63.7892" filterUnits="userSpaceOnUse" color-interpolation-filters="sRGB">
<feFlood flood-opacity="0" result="BackgroundImageFix"/>
<feColorMatrix in="SourceAlpha" type="matrix" values="0 0 0 0 0 0 0 0 0 0 0 0 0 0 0 0 0 0 127 0" result="hardAlpha"/>
<feOffset dy="4"/>
<feGaussianBlur stdDeviation="2"/>
<feComposite in2="hardAlpha" operator="out"/>
<feColorMatrix type="matrix" values="0 0 0 0 0 0 0 0 0 0 0 0 0 0 0 0 0 0 0.25 0"/>
<feBlend mode="normal" in2="BackgroundImageFix" result="effect1_dropShadow_216_4517"/>
<feBlend mode="normal" in="SourceGraphic" in2="effect1_dropShadow_216_4517" result="shape"/>
</filter>
</defs>
</svg>
